<svg xmlns="http://www.w3.org/2000/svg" width="831.6" height="457.591" viewBox="0 0 831.6 457.591">
    <defs>
        <style>
            .cls-1,.cls-4{fill:none;stroke-linecap:round}.cls-1{stroke:#195dff}.cls-2{fill:#c1c6c7}.cls-3{opacity:.27}.cls-10,.cls-4{stroke:#000}.cls-4{stroke-linejoin:round;stroke-width:.75px}.cls-5{fill:#e1e1e1}.cls-11,.cls-6{fill:#fff}.cls-11,.cls-6,.cls-7,.cls-8{stroke:#16272a}.cls-7,.cls-8{fill:#e3ebfd}.cls-8{opacity:.6}.cls-9{fill:#16272a}.cls-10{fill:#e2f4f7}.cls-11{opacity:.2}
        </style>
    </defs>
    <g id="Group_13793" transform="translate(-64.681)">
        <g id="Group_1870" transform="translate(65.181 298.271)">
            <path id="Path_996" d="M-3 0h830.6" class="cls-1" transform="translate(3)"/>
        </g>
        <g id="Group_12743" transform="translate(360.569 457.091)">
            <path id="Path_996-2" d="M-3 0h333.653" class="cls-1" transform="translate(3)"/>
        </g>
        <g id="Group_12744" transform="translate(192.065 366.06)">
            <path id="Path_996-3" d="M-3 0h333.653" class="cls-1" transform="translate(3)"/>
        </g>
        <g id="Group_13446" transform="translate(680.338)">
            <g id="Group_13438" transform="translate(0 66.324)">
                <path id="Path_10396" d="M366.225 79.218l-36.288 13.516h81.994l-34.072-13.516z" class="cls-2" transform="translate(-329.937 -79.218)"/>
            </g>
            <g id="Group_13440" transform="translate(33.004 77.941)">
                <g id="Group_13439">
                    <path id="Path_10397" d="M384.688 92.89a21.8 21.8 0 0 0-.3 2.379 11.861 11.861 0 0 0 1.5 6.247c.627 1.228 1.442 2.522 2.075 4.056a8.885 8.885 0 0 1 .531 5.225 9.391 9.391 0 0 1-2.833 5.066 8.649 8.649 0 0 1-5.8 2.217 9.124 9.124 0 0 1-5.887-2.011 9.184 9.184 0 0 1-2.618-10.219 17.076 17.076 0 0 1 2.417-3.884 15.614 15.614 0 0 0 1.974-3.133 7.149 7.149 0 0 0 .633-2.691 5.148 5.148 0 0 0-.538-2.3 2.185 2.185 0 0 1 .33.534 4.373 4.373 0 0 1 .4 1.76 7.146 7.146 0 0 1-.573 2.8 15.389 15.389 0 0 1-1.948 3.229 17.105 17.105 0 0 0-2.32 3.827 8.491 8.491 0 0 0 8.129 11.607 8.208 8.208 0 0 0 5.491-2.086 8.993 8.993 0 0 0 2.716-4.8 8.517 8.517 0 0 0-.467-4.99c-.6-1.5-1.393-2.8-2.008-4.05a11.714 11.714 0 0 1-1.385-6.411 10.048 10.048 0 0 1 .291-1.774 2.519 2.519 0 0 1 .19-.598z" class="cls-2" transform="translate(-370.753 -92.89)"/>
                </g>
            </g>
            <g id="Group_13442" transform="translate(38.788 78.797)">
                <g id="Group_13441">
                    <path id="Path_10398" d="M381.857 93.82a15.453 15.453 0 0 1-.244 1.691 43.972 43.972 0 0 0-.463 4.618 37.215 37.215 0 0 0 .3 6.836 1.536 1.536 0 0 0 .373.766.756.756 0 0 0 .7.253c.495-.107.76-.863.661-1.455a2.948 2.948 0 0 0-2.806-2.452 2.917 2.917 0 0 0-2.862 2.37 1.281 1.281 0 0 0 .754 1.444 1.135 1.135 0 0 0 1.311-.761 5.653 5.653 0 0 0 .306-1.788c.046-.61.067-1.2.077-1.778a30.588 30.588 0 0 0-.132-3.193 31.545 31.545 0 0 0-.774-4.568c-.261-1.065-.438-1.647-.4-1.659a1.565 1.565 0 0 1 .182.405c.105.271.241.677.4 1.206a26.762 26.762 0 0 1 .931 4.581 29 29 0 0 1 .193 3.23c0 .581-.014 1.184-.053 1.8a5.9 5.9 0 0 1-.323 1.939 1.918 1.918 0 0 1-.7.85 1.336 1.336 0 0 1-1.16.166 1.742 1.742 0 0 1-1.074-1.935 3.338 3.338 0 0 1 6.6.071 2.2 2.2 0 0 1-.143 1.155 1.3 1.3 0 0 1-.885.815 1.21 1.21 0 0 1-1.121-.387 1.979 1.979 0 0 1-.482-.985 35.855 35.855 0 0 1 .41-11.582c.113-.539.211-.956.289-1.236a1.562 1.562 0 0 1 .135-.417z" class="cls-2" transform="translate(-377.029 -93.82)"/>
                </g>
            </g>
            <g id="Group_13444" transform="translate(41.874)">
                <g id="Group_13443">
                    <path id="Path_10399" d="M380.608 4.2a3.757 3.757 0 0 1 .049.695l.045 1.99.076 7.319.071 24.147-.071 24.152-.076 7.319-.045 1.99a3.739 3.739 0 0 1-.049.694 3.809 3.809 0 0 1-.048-.694l-.045-1.99-.076-7.319-.07-24.152.07-24.147.076-7.319.045-1.99a3.827 3.827 0 0 1 .048-.695z" class="cls-2" transform="translate(-380.368 -4.202)"/>
                </g>
            </g>
            <g id="Group_13445" transform="translate(35.634 55.661)">
                <path id="Path_10400" d="M373.615 78.264l2.5-11.172h8.285l2.115 11.172z" class="cls-2" transform="translate(-373.615 -67.092)"/>
            </g>
        </g>
        <g id="Group_13462" transform="translate(109.236 203.367)">
            <g id="Group_3906">
                <g id="Group_3902" class="cls-3" transform="translate(33.404)">
                    <path id="Path_2099" d="M416.764 301.6c-3.69-2.541-1.458-6.734-3.169-9.512s-.61-5.627 1.14-7.457 2.181-3.334.945-5.927.158-5.763 1.319-7.213 3.957-3.447 5.087-9.593 9.433-8.958 9.433-8.958 5.341 6.949 2.869 12.689-1.258 8.951-1.1 10.8-.441 5.261-2.909 6.731-2.944 2.959-2.505 5.453-.229 5.476-3.2 6.835-3.428 6.086-7.91 6.152z" class="cls-4" transform="translate(-412.739 -252.938)"/>
                    <path id="Line_263" d="M0 48.66L14.755 0" class="cls-4" transform="translate(4.024)"/>
                </g>
                <g id="Group_3903" class="cls-3" transform="translate(4.676 2.206)">
                    <path id="Path_2100" d="M421.632 320.724c5.042-3.4 2.066-9.121 4.422-12.869s.9-7.628-1.452-10.133-2.916-4.552-1.207-8.054-.14-7.822-1.7-9.806-5.324-4.729-6.781-13.081S402.23 254.5 402.23 254.5s-7.335 9.362-4.055 17.181 1.593 12.165 1.352 14.674.531 7.144 3.861 9.171 3.957 4.052 3.331 7.432.24 7.433 4.247 9.316 4.584 8.305 10.666 8.45z" class="cls-4" transform="translate(-397.33 -254.503)"/>
                    <path id="Line_270" d="M19.402 66.221L0 0" class="cls-4" transform="translate(4.899)"/>
                </g>
                <g id="Group_3904" class="cls-3" transform="translate(0 48.66)">
                    <path id="Path_2101" d="M409.772 305.263c1.281-2.055-.728-3.651-.479-5.4a3.231 3.231 0 0 0-2.171-3.449 2.424 2.424 0 0 1-1.745-2.734 4.021 4.021 0 0 0-2.208-3.291 9.032 9.032 0 0 1-4.587-3.657c-1.885-2.8-6.6-2.408-6.6-2.408s-1.15 4.593 1.31 6.9a9.033 9.033 0 0 1 2.872 5.118 4.019 4.019 0 0 0 2.89 2.709 2.423 2.423 0 0 1 2.417 2.163 3.235 3.235 0 0 0 3.054 2.7c1.761.042 3.011 2.286 5.247 1.349z" class="cls-4" transform="translate(-391.712 -284.309)"/>
                    <path id="Line_277" d="M17.792 20.935L0 0" class="cls-4" transform="translate(.268 .019)"/>
                </g>
                <g id="Group_3905" class="cls-3" transform="translate(34.597 39.681)">
                    <path id="Path_2102" d="M421.742 314.145c-1.824-2.926 1.037-5.2.682-7.683a4.6 4.6 0 0 1 3.091-4.911 3.452 3.452 0 0 0 2.485-3.893c-.077-2.209 1.878-4.018 3.143-4.686a12.855 12.855 0 0 0 6.532-5.208c2.685-3.991 9.4-3.429 9.4-3.429s1.636 6.541-1.867 9.831a12.87 12.87 0 0 0-4.089 7.287c-.454 1.355-1.922 3.576-4.115 3.858a3.451 3.451 0 0 0-3.441 3.08 4.6 4.6 0 0 1-4.349 3.844c-2.509.05-4.289 3.239-7.472 1.91z" class="cls-4" transform="translate(-421.128 -284.308)"/>
                    <path id="Line_284" d="M0 29.81L25.334 0" class="cls-4" transform="translate(.614 .027)"/>
                </g>
            </g>
            <path id="Path_2103" d="M435.863 330.4H406l-4.817-26.2h39.5z" class="cls-5" transform="translate(-391.664 -236.318)"/>
        </g>
        <g id="Group_13789" transform="translate(223.122 63.957)">
            <g id="Group_13788">
                <g id="Group_13787" transform="translate(62.019)">
                    <g id="Group_13786">
                        <path id="Rectangle_2602" d="M0 0H156.256V197.445H0z" class="cls-6" transform="rotate(-.108 155.972 .147)"/>
                        <g id="Group_13784" transform="translate(16.169 66.951)">
                            <path id="Rectangle_2603" d="M0 0H102.231V2.523H0z" class="cls-5" transform="rotate(-.108 111.321 -9476.517)"/>
                            <path id="Rectangle_2604" d="M0 0H120.118V2.524H0z" class="cls-5" transform="rotate(-.108 7180.008 6.767)"/>
                            <path id="Rectangle_2605" d="M0 0H120.118V2.523H0z" class="cls-5" transform="rotate(-.108 15212.57 -1.047)"/>
                            <path id="Rectangle_2606" d="M0 0H120.118V2.523H0z" class="cls-5" transform="rotate(-.108 23988.917 -9.222)"/>
                        </g>
                        <g id="Group_13785" transform="translate(16.26 128.701)">
                            <path id="Rectangle_2607" d="M0 0H75.601V2.523H0z" class="cls-5" transform="rotate(-.108 8079.247 -7.24)"/>
                            <path id="Rectangle_2608" d="M0 0H75.601V2.523H0z" class="cls-5" transform="rotate(-.108 75.333 .071)"/>
                            <path id="Rectangle_2609" d="M0 0H120.118V2.523H0z" class="cls-5" transform="rotate(-.108 15139.37 -13.849)"/>
                            <path id="Rectangle_2610" d="M0 0H120.118V2.524H0z" class="cls-5" transform="rotate(-.108 23171.933 -21.663)"/>
                            <path id="Rectangle_2611" d="M0 0H120.118V2.524H0z" class="cls-5" transform="rotate(-.108 31948.28 -29.838)"/>
                        </g>
                        <path id="Rectangle_2612" d="M0 0H124.4V39.076H0z" class="cls-5" transform="rotate(-.108 8403.086 -8125.433)"/>
                        <path id="Rectangle_2613" d="M0 0H37.345V36.438H0z" class="cls-5" transform="rotate(-.108 67579.422 -51862.23)"/>
                    </g>
                </g>
                <path id="Path_10402" d="M441.121 367.7v-13.233a13.372 13.372 0 0 0-13.372-13.367h-65.62a13.372 13.372 0 0 0-13.372 13.372v172.067a13.372 13.372 0 0 0 13.372 13.372h226.318a13.372 13.372 0 0 0 13.372-13.372V394.44a13.372 13.372 0 0 0-13.372-13.372H454.493a13.372 13.372 0 0 1-13.372-13.368z" class="cls-7" transform="translate(-348.757 -237.799)"/>
            </g>
        </g>
        <g id="Group_13790" transform="translate(409.144 90.061)">
            <g id="Character">
                <g id="Group_12735">
                    <g id="Group_12719" transform="translate(61.615 214.204)">
                        <path id="Path_2603" d="M317.081 339.551h-150.56a2.139 2.139 0 0 1-2.059-2.716l.047-.172c2.987-10.659 14.049-19.3 24.71-19.3H322.1a2.138 2.138 0 0 1 2.059 2.716l-5.019 17.91a2.139 2.139 0 0 1-2.059 1.562z" class="cls-7" transform="translate(-160.625 -317.363)"/>
                        <g id="Group_12715" transform="translate(136.923 22.188)">
                            <path id="Path_2604" d="M273.773 461.127h5.987l-22.46-129.28h-5.99z" class="cls-7" transform="translate(-251.31 -331.847)"/>
                            <path id="Path_2605" d="M273.773 461.127h5.987l-22.46-129.28h-5.99z" class="cls-8" transform="translate(-251.31 -331.847)"/>
                        </g>
                        <g id="Group_12716" transform="translate(114.461 22.188)">
                            <path id="Path_2606" d="M247.878 461.127h5.987l-11.231-129.28h-5.987z" class="cls-7" transform="translate(-236.647 -331.847)"/>
                            <path id="Path_2607" d="M247.878 461.127h5.987l-11.231-129.28h-5.987z" class="cls-8" transform="translate(-236.647 -331.847)"/>
                        </g>
                        <g id="Group_12717" transform="translate(0 22.188)">
                            <path id="Path_2608" d="M167.917 461.127h-5.987l22.463-129.28h5.987z" class="cls-7" transform="translate(-161.929 -331.847)"/>
                            <path id="Path_2609" d="M167.917 461.127h-5.987l22.463-129.28h5.987z" class="cls-8" transform="translate(-161.929 -331.847)"/>
                        </g>
                        <g id="Group_12718" transform="translate(33.694 22.188)">
                            <path id="Path_2610" d="M189.911 461.127h-5.987l11.231-129.28h5.987z" class="cls-7" transform="translate(-183.924 -331.847)"/>
                            <path id="Path_2611" d="M189.911 461.127h-5.987l11.231-129.28h5.987z" class="cls-8" transform="translate(-183.924 -331.847)"/>
                        </g>
                    </g>
                    <g id="Group_12734">
                        <g id="Group_12733">
                            <ellipse id="Ellipse_64" cx="13.291" cy="14.1" class="cls-9" rx="13.291" ry="14.1" transform="rotate(-9.43 108.183 -949.506)"/>
                            <path id="Path_2612" d="M228.445 198.347s9.391 6.733 21.487-1.223c-6.292 1.659-13.26-1.008-13.26-1.008z" class="cls-9" transform="translate(-64.933 -167.651)"/>
                            <path id="Path_2613" d="M241.536 193.764c1.115 6.714-2.813 12.958-8.77 13.948s-11.693-3.652-12.808-10.366 2.813-12.958 8.772-13.948 11.692 3.651 12.806 10.366z" class="cls-6" transform="translate(-69.548 -174.487)"/>
                            <path id="Path_2614" d="M221.715 228.35c11.915-3.128 26.383-22.982 13.539-42.607-4.858 0-18.159 4.479-18.159 4.479z" class="cls-9" transform="translate(-70.97 -173.169)"/>
                            <path id="Path_2615" d="M202.548 183.82c-9.23 8.159-13.61 30.28 7.1 44.139 4.338-2.188 14.2-12.177 14.2-12.177z" class="cls-9" transform="translate(-82.804 -174.192)"/>
                            <path id="Path_2616" d="M219.034 243.589c-.077 2.241-.17 4.17-.349 6.216q-.246 3.029-.573 6.023c-.414 4-.974 7.977-1.63 11.934a235.159 235.159 0 0 1-5.124 23.512l-1.67 5.792-1.835 5.745a18.028 18.028 0 0 1-4.876 7.787 17.739 17.739 0 0 1-8.027 4.179 29.853 29.853 0 0 1-14.271-.662 45.988 45.988 0 0 1-6.088-2.085 49.185 49.185 0 0 1-5.755-2.8l3.021-7.174c1.65.325 3.539.718 5.308.961 1.8.237 3.572.447 5.3.525 3.418.188 6.8-.1 8.916-1.037a4.493 4.493 0 0 0 2.037-1.521 4.3 4.3 0 0 0 .452-.9 4.677 4.677 0 0 0 .187-.568c.028-.106.061-.205.083-.326l.112-.466 1.4-5.49 1.276-5.523c1.627-7.384 2.943-14.846 4.018-22.334.547-3.742 1-7.5 1.426-11.244.211-1.873.391-3.75.545-5.614.147-1.835.323-3.8.414-5.449z" class="cls-6" transform="translate(-96.641 -142.681)"/>
                            <path id="Path_2617" d="M198.294 234.619c-5.579 3.407-11.313 27.7-11.313 27.7l24.092 12.237s10.27-26.254 5.481-33.276c-4.987-7.312-10.119-11.633-18.26-6.661z" class="cls-10" transform="translate(-86.988 -148.307)"/>
                            <path id="Path_2619" d="M178.162 285.749l-15.508-10.141 2.425 13.68s5.665 3.546 9.133 2.765z" class="cls-6" transform="translate(-99.928 -125.369)"/>
                            <path id="Path_2620" d="M191.808 248.771c.9 13.542 3.837 37.779 12.623 77.651l62.314-3.673c-2.54-25.3-3.491-40.936 5.561-93.7a184.277 184.277 0 0 0-26.666-1.926c-10.515.112-19.126.283-28.294 1.668-4.078.616-8.331 1.437-12.174 2.257a16.952 16.952 0 0 0-13.364 17.723z" class="cls-10" transform="translate(-84.441 -151.161)"/>
                            <path id="Path_2621" d="M211.335 240.766s6.123 7.755 14.464 10.259 10.693-14.5 9.434-23.844c-7.713-1.926-23.898 13.585-23.898 13.585z" class="cls-11" transform="translate(-74.034 -151.216)"/>
                            <path id="Path_2622" d="M211.335 240.766s6.921 6.935 15.261 9.44 9.9-13.682 8.637-23.025c-7.713-1.926-23.898 13.585-23.898 13.585z" class="cls-6" transform="translate(-74.034 -151.216)"/>
                            <path id="Path_2623" d="M216.45 240.193a21.74 21.74 0 0 1-11.416 9.44c-8.17 3.016.53-17.966 7.019-21.356 7.714-1.927 4.397 11.916 4.397 11.916z" class="cls-11" transform="translate(-79.15 -150.643)"/>
                            <path id="Path_2624" d="M216.6 240.193a21.4 21.4 0 0 1-11.849 8.438c-8.34 2.5.964-16.964 7.453-20.355 7.71-1.926 4.396 11.917 4.396 11.917z" class="cls-6" transform="translate(-79.296 -150.643)"/>
                            <path id="Path_2630" d="M232.924 208.663c-1.248 9.21-2.249 22.579 4.479 28.279 0 0-12.626 7.419-23.8 23.025-10.857-14.354-4.493-21.356-4.493-21.356 10.01-3.022 9.5-7.123 7.319-14.092z" class="cls-6" transform="translate(-76.204 -160.978)"/>
                            <path id="Path_2632" d="M238.343 200.795c2.419 15.06 3.764 21.382-2.03 30.69-8.714 14-27.741 13.678-34.612-.357-6.183-12.632-9.1-35.139 4.116-44.312a20.8 20.8 0 0 1 32.526 13.979z" class="cls-6" transform="translate(-81.937 -174.628)"/>
                            <path id="Path_2633" d="M237.75 183.695c-15.319-10.979-53.133-6.324-47.319 6.414 6.986 15.3 18.979 15.713 18.979 15.713s-4.78-2.3-4.68-5.362c11.235-3.49 19.829 3.571 24.681-1.036-2.128 8.7 11.829 16.92 11.829 16.92a36.589 36.589 0 0 0 9.191-12.314c3.303-7.512.681-19.911-12.681-20.335z" class="cls-9" transform="translate(-85.474 -177.535)"/>
                            <g id="Group_12727" transform="translate(0 171.588)">
                                <path id="Path_2642" d="M153.942 421.46l-13.551-6.007 13.165-34.534 13.551 6.007z" class="cls-6" transform="translate(-111.77 -240.94)"/>
                                <path id="Path_2643" d="M149.812 401.663l16.352 5.547a1.216 1.216 0 0 1 .824 1.388l-2.526 13.57a2.469 2.469 0 0 1-3.211 1.8c-5.668-2.033-8.3-3.3-15.492-5.739-4.424-1.5-13.85-3.059-19.959-5.132-5.974-2.027-4.384-8.223-1.656-7.908 12.24 1.417 18-1.53 22.933-3.453a4.006 4.006 0 0 1 2.735-.073z" class="cls-10" transform="translate(-121.708 -230.017)"/>
                                <g id="Group_12726" transform="translate(33.704)">
                                    <path id="Path_2645" d="M259.765 291.462s-83.633 6.007-86.938 34.375c-5.622 48.272-29.119 114.972-29.119 114.972l18.884 8s34.908-64.227 44.614-106.151c16.194-9.161 96.875 23.654 85.1-53.115z" class="cls-9" transform="translate(-143.709 -289.544)"/>
                                </g>
                            </g>
                            <g id="Group_12730" transform="translate(17.666 173.515)">
                                <path id="Path_2649" d="M186.594 389.685l-12.7 7.637L153.2 366.7l12.7-7.637z" class="cls-6" transform="translate(-122.625 -254.492)"/>
                                <path id="Path_2650" d="M169.252 386.864l13.937-10.193a1.217 1.217 0 0 1 1.61.123l9.653 9.867a2.467 2.467 0 0 1-.375 3.66c-4.921 3.47-7.47 4.9-13.6 9.38-3.772 2.757-10.463 9.576-15.672 13.384-5.092 3.724-9.25-1.138-7.422-3.191 8.193-9.2 9.089-15.6 10.353-20.75a4.015 4.015 0 0 1 1.516-2.28z" class="cls-10" transform="translate(-120.631 -245.259)"/>
                                <g id="Group_12729">
                                    <path id="Path_2652" d="M227.874 292.548s-88.318-4.063-93.454 24.033c-8.743 47.8 33.981 99.53 33.981 99.53l17.4-10.855s-13.158-36.749-18.165-69.659c16.755-8.09 106.8 32.576 100.031-44.795z" class="cls-9" transform="translate(-133.24 -290.802)"/>
                                </g>
                            </g>
                            <path id="Union_6" d="M32.675 68.745a120.389 120.389 0 0 1-18.375-2.18c-4.69 1.651-10.73-.037-10.73-.037L0 51.313l11.691 5.933a184.306 184.306 0 0 0 20.773-.174A53.271 53.271 0 0 0 43.9 55.139a12.523 12.523 0 0 0 3.886-1.822 1.734 1.734 0 0 0 .6-.695c.029-.131-.028-.089-.041-.157l-.683-4.2c-.329-2.048-.766-4.082-1.139-6.123-.85-4.065-1.841-8.1-2.912-12.1-1.1-4-2.37-7.951-3.753-11.84-.663-1.955-1.382-3.885-2.132-5.786L36.571 9.6c-.365-.9-.806-1.915-1.117-2.6l14.07-7c.635 1.276 1.08 2.247 1.573 3.347.472 1.076.908 2.147 1.336 3.218.851 2.146 1.656 4.294 2.4 6.458 1.46 4.336 2.679 8.733 3.773 13.154s1.906 8.911 2.591 13.412c.3 2.258.62 4.514.816 6.785l.3 3.4.076.917c.024.475.052.938.05 1.422a15.8 15.8 0 0 1-.328 3.03 14.115 14.115 0 0 1-2.677 5.75 16.031 16.031 0 0 1-4.177 3.707 25.84 25.84 0 0 1-8.129 3.133A54.885 54.885 0 0 1 35.82 68.8c-1.055 0-2.102-.023-3.145-.055z" class="cls-6" transform="translate(145.989 93.789)"/>
                            <path id="Path_2660" d="M249.916 228.457c6.356 1.53 15.12 22.585 15.12 22.585l-19.648 17.83s-13.441-16.509-11.293-24.733c2.236-8.565 8.571-17.428 15.821-15.682z" class="cls-10" transform="translate(-62.052 -150.567)"/>
                            <path id="Path_2661" d="M208.731 274.75l3.681 12.577 12.571.143-3.574-15.215z" class="cls-6" transform="translate(-75.419 -127.153)"/>
                            <g id="Group_12731" transform="translate(62.609 122.945)">
                                <path id="Path_2662" d="M245 317h-64.422a10.872 10.872 0 0 1-10.215-8.638l-7.643-41.93a7.022 7.022 0 0 1 7.064-8.64H234.2a10.871 10.871 0 0 1 10.213 8.64l7.644 41.93A7.021 7.021 0 0 1 245 317z" class="cls-6" transform="translate(-162.578 -257.791)"/>
                                <path id="Path_2663" fill="#fff" stroke="#16272a" d="M243.846 317h-63.268a10.872 10.872 0 0 1-10.215-8.638l-7.643-41.93a7.022 7.022 0 0 1 7.064-8.64h63.268a10.869 10.869 0 0 1 10.213 8.64l7.644 41.93a7.021 7.021 0 0 1-7.063 8.638z" opacity="0.5" transform="translate(-162.578 -257.791)"/>
                            </g>
                            <g id="Group_12732" transform="translate(62.726 146.84)">
                                <path id="Path_2664" d="M162.654 276.788l2.425 13.68 5.328-4.991-1.429-10.186a2.208 2.208 0 0 0-3.8-1.2z" class="cls-6" transform="translate(-162.654 -273.389)"/>
                            </g>
                        </g>
                    </g>
                </g>
            </g>
            <g id="Group_12919" transform="translate(97.539 147.989)">
                <g id="Group_12918">
                    <g id="Group_12917">
                        <g id="Group_12916">
                            <g id="Group_12915">
                                <g id="Group_12914">
                                    <g id="Group_12913">
                                        <g id="Group_12912">
                                            <path id="Path_10299" fill="#e2f4f7" stroke="#16272a" d="M1322.465 260.581a7.884 7.884 0 0 0 7.616 6.8 5.908 5.908 0 0 0 6.05-5.762 5.836 5.836 0 0 0-.067-1.038 7.882 7.882 0 0 0-7.616-6.8 5.906 5.906 0 0 0-6.049 5.761 5.966 5.966 0 0 0 .066 1.039z" transform="translate(-1322.397 -253.779)"/>
                                        </g>
                                    </g>
                                </g>
                            </g>
                        </g>
                    </g>
                </g>
            </g>
        </g>
        <g id="Group_13791" transform="translate(803.586 203.367)">
            <g id="Group_3906-2">
                <g id="Group_3902-2" class="cls-3" transform="translate(33.404)">
                    <path id="Path_2099-2" d="M416.764 301.6c-3.69-2.541-1.458-6.734-3.169-9.512s-.61-5.627 1.14-7.457 2.181-3.334.945-5.927.158-5.763 1.319-7.213 3.957-3.447 5.087-9.593 9.433-8.958 9.433-8.958 5.341 6.949 2.869 12.689-1.258 8.951-1.1 10.8-.441 5.261-2.909 6.731-2.944 2.959-2.505 5.453-.229 5.476-3.2 6.835-3.428 6.086-7.91 6.152z" class="cls-4" transform="translate(-412.739 -252.938)"/>
                    <path id="Line_263-2" d="M0 48.66L14.755 0" class="cls-4" transform="translate(4.024)"/>
                </g>
                <g id="Group_3903-2" class="cls-3" transform="translate(4.676 2.206)">
                    <path id="Path_2100-2" d="M421.632 320.724c5.042-3.4 2.066-9.121 4.422-12.869s.9-7.628-1.452-10.133-2.916-4.552-1.207-8.054-.14-7.822-1.7-9.806-5.324-4.729-6.781-13.081S402.23 254.5 402.23 254.5s-7.335 9.362-4.055 17.181 1.593 12.165 1.352 14.674.531 7.144 3.861 9.171 3.957 4.052 3.331 7.432.24 7.433 4.247 9.316 4.584 8.305 10.666 8.45z" class="cls-4" transform="translate(-397.33 -254.503)"/>
                    <path id="Line_270-2" d="M19.402 66.221L0 0" class="cls-4" transform="translate(4.899)"/>
                </g>
                <g id="Group_3904-2" class="cls-3" transform="translate(0 48.66)">
                    <path id="Path_2101-2" d="M409.772 305.263c1.281-2.055-.728-3.651-.479-5.4a3.231 3.231 0 0 0-2.171-3.449 2.424 2.424 0 0 1-1.745-2.734 4.021 4.021 0 0 0-2.208-3.291 9.032 9.032 0 0 1-4.587-3.657c-1.885-2.8-6.6-2.408-6.6-2.408s-1.15 4.593 1.31 6.9a9.033 9.033 0 0 1 2.872 5.118 4.019 4.019 0 0 0 2.89 2.709 2.423 2.423 0 0 1 2.417 2.163 3.235 3.235 0 0 0 3.054 2.7c1.761.042 3.011 2.286 5.247 1.349z" class="cls-4" transform="translate(-391.712 -284.309)"/>
                    <path id="Line_277-2" d="M17.792 20.935L0 0" class="cls-4" transform="translate(.268 .019)"/>
                </g>
                <g id="Group_3905-2" class="cls-3" transform="translate(34.597 39.681)">
                    <path id="Path_2102-2" d="M421.742 314.145c-1.824-2.926 1.037-5.2.682-7.683a4.6 4.6 0 0 1 3.091-4.911 3.452 3.452 0 0 0 2.485-3.893c-.077-2.209 1.878-4.018 3.143-4.686a12.855 12.855 0 0 0 6.532-5.208c2.685-3.991 9.4-3.429 9.4-3.429s1.636 6.541-1.867 9.831a12.87 12.87 0 0 0-4.089 7.287c-.454 1.355-1.922 3.576-4.115 3.858a3.451 3.451 0 0 0-3.441 3.08 4.6 4.6 0 0 1-4.349 3.844c-2.509.05-4.289 3.239-7.472 1.91z" class="cls-4" transform="translate(-421.128 -284.308)"/>
                    <path id="Line_284-2" d="M0 29.81L25.334 0" class="cls-4" transform="translate(.614 .027)"/>
                </g>
            </g>
            <path id="Path_2103-2" d="M435.863 330.4H406l-4.817-26.2h39.5z" class="cls-5" transform="translate(-391.664 -236.318)"/>
        </g>
    </g>
</svg>
